<svg width="159" height="129" viewBox="0 0 159 129" fill="none" xmlns="http://www.w3.org/2000/svg">
<path d="M78.8077 32.51L91.2706 37.4947L73.7109 81.3978L49.2101 71.5984C45.4713 71.4172 38.853 75.9984 36.0112 78.3116C28.4432 84.7471 22.5102 85.5064 20.4898 85.0816C14.7022 84.3548 3.84061 79.1454 6.69522 64.1221C10.2635 45.343 21.5927 31.8037 30.5428 20.1055C39.4929 8.4073 48.2734 8.63361 56.6575 11.4941C65.0416 14.3546 74.5303 18.1497 74.3889 24.6643C74.2758 29.876 77.2877 32.0663 78.8077 32.51Z" fill="white"/>
<path d="M102.333 41.9189L89.8705 36.9342L72.3108 80.8374L96.8117 90.6368C99.6442 93.0839 101.278 100.966 101.741 104.6C102.783 114.48 106.556 119.121 108.312 120.207C113.005 123.672 124.463 127.389 132.756 114.541C143.122 98.4811 144.254 80.8634 145.84 66.2197C147.426 51.576 140.911 45.6848 132.867 41.9746C124.823 38.2643 115.334 34.4692 110.944 39.2845C107.432 43.1367 103.74 42.6458 102.333 41.9189Z" fill="white"/>
<circle cx="47.1672" cy="70.5917" r="10.067" transform="rotate(21.7996 47.1672 70.5917)" fill="#C4C4C4"/>
<circle cx="97.8679" cy="90.8703" r="10.067" transform="rotate(21.7996 97.8679 90.8703)" fill="#C4C4C4"/>
<circle cx="124.265" cy="61.0159" r="4.88098" transform="rotate(21.7996 124.265 61.0159)" fill="#FFA825"/>
<circle cx="130.384" cy="75.2911" r="4.88098" transform="rotate(21.7996 130.384 75.2911)" fill="#D4145A"/>
<circle cx="116.562" cy="80.2767" r="4.88098" transform="rotate(21.7996 116.562 80.2767)" fill="#55AF1B"/>
<rect x="36.6289" y="34.5071" width="23.1847" height="5.79617" rx="2.89808" transform="rotate(21.7996 36.6289 34.5071)" fill="#C4C4C4"/>
<rect x="39.1221" y="51.2749" width="23.1847" height="5.79617" rx="2.89808" transform="rotate(-68.2004 39.1221 51.2749)" fill="#C4C4C4"/>
<circle cx="109.99" cy="67.1341" r="4.88098" transform="rotate(21.7996 109.99 67.1341)" fill="#0086FF"/>
<circle cx="47.167" cy="70.5919" r="7.9316" transform="rotate(21.7996 47.167 70.5919)" fill="#575757"/>
<circle cx="97.8681" cy="90.8704" r="7.9316" transform="rotate(21.7996 97.8681 90.8704)" fill="#575757"/>
</svg>
